/* XPM */
static const char *application_go[] = {
/* columns rows colors chars-per-pixel */
"16 16 125 2 ",
"   c None",
".  c #1F7B00",
"X  c #1E7B03",
"o  c #217D00",
"O  c #257F00",
"+  c #257C0E",
"@  c #247C10",
"#  c #2B8301",
"$  c #358708",
"%  c #3B8B10",
"&  c #438F16",
"*  c #469019",
"=  c #49911C",
"-  c #519722",
";  c #579828",
":  c #5B9B29",
">  c #5E9F3A",
",  c #629E31",
"<  c #639F31",
"1  c #659F31",
"2  c #5CA03C",
"3  c #68A235",
"4  c #6BA337",
"5  c #69A239",
"6  c #6EA439",
"7  c #6FA53D",
"8  c #70A63F",
"9  c #5FA143",
"0  c #62A346",
"q  c #68A546",
"w  c #66A548",
"e  c #74AB4F",
"r  c #7CAF55",
"t  c #81B35A",
"y  c #80B361",
"u  c #82B567",
"i  c #85B666",
"p  c #85B66A",
"a  c #89B86B",
"s  c #8EBA6F",
"d  c #90BC74",
"f  c #447382",
"g  c #5171A9",
"h  c #577BA9",
"j  c #5A7CB2",
"k  c #5C7EB5",
"l  c #5E81B7",
"z  c #5F83B9",
"x  c #6085BA",
"c  c #6185BB",
"v  c #6387BD",
"b  c #6488BE",
"n  c #668BC0",
"m  c #688EC3",
"M  c #6F90C1",
"N  c #6C92C8",
"B  c #6C94C9",
"V  c #6E94CA",
"C  c #6F96CB",
"Z  c #6F97CC",
"A  c #7A9AC4",
"S  c #7099CE",
"D  c #729ACF",
"F  c #739CD1",
"G  c #739DD2",
"H  c #759ED4",
"J  c #76A0D5",
"K  c #79A2D8",
"L  c #79A3D9",
"P  c #7AA4DA",
"I  c #7AA4DB",
"U  c #7AA6DC",
"Y  c #7BA7DC",
"T  c #96C180",
"R  c #97C282",
"E  c #98C283",
"W  c #9EC588",
"Q  c #A1C68A",
"!  c #A1C78A",
"~  c #A5C88D",
"^  c #A9CA90",
"/  c #A8CB90",
"(  c #AACB91",
")  c #ADCD94",
"_  c #B0CE96",
"`  c #85ACDD",
"'  c #8DB1DD",
"]  c #92B9E8",
"[  c #DEE7F2",
"{  c #E4EAF3",
"}  c #E7EFF1",
"|  c #E7EBF5",
" . c #E8ECF6",
".. c #EAEFF6",
"X. c #EAF0F7",
"o. c #EBF2F7",
"O. c #EDF3F7",
"+. c #EEF4F8",
"@. c #F9FBF7",
"#. c #F0F5F9",
"$. c #F1F6FB",
"%. c #F2F7FA",
"&. c #F3F7FB",
"*. c #F4F7FB",
"=. c #F4F8FB",
"-. c #F5F8FB",
";. c #F5F9FB",
":. c #F7F9FB",
">. c #F6FAFB",
",. c #F7FBFC",
"<. c #F8FBFC",
"1. c #F9FBFC",
"2. c #F8FCFC",
"3. c #F9FCFC",
"4. c #F9FDFD",
"5. c #FAFCFC",
"6. c #FAFDFD",
"7. c #FBFDFD",
"8. c #FCFDFD",
"9. c #FCFEFE",
"0. c #FDFEFE",
"q. c #FCFFFF",
"w. c #FDFFFF",
"e. c #FEFFFF",
"r. c white",
/* pixels */
"                                ",
"  ' Y U P K J H G D S C B A     ",
"` ] ] ] ] ] ] ] ] ] ] ] ] ] M   ",
"Y Y Y Y Y Y Y Y Y Y Y Y Y Y n   ",
"I r.r.r.r.r.r.r.r.r.r.r.r.r.v   ",
"L r.1.<.:.*.%.#.O...| { [ r.x   ",
"K r.6.5.1.>.-.*.$.+.o.X. .r.l   ",
"J r.8.7.6.3.,.;.=.&.8 1 } r.k   ",
"H r.9.7.8.7.4.2.:.;.5 t ; @.j   ",
"F r.9.9.9.7.7 6 3 , r ( e * h   ",
"Z r.q.w.9.9.4 _ ) ( / d ! q $   ",
"V r.r.e.w.0.< ) s a i y u E 2 O ",
"N r.r.r.r.r.: ^ ~ Q W p R w +   ",
"g m n b c z - = & % > T 0 @ f   ",
"                    # 9 .       ",
"                    o X         "
};
