/* XPM */
static const char *page_green[] = {
/* columns rows colors chars-per-pixel */
"16 16 143 2 ",
"   c None",
".  c #6CA54B",
"X  c #88C062",
"o  c #2A60B7",
"O  c #2C62B7",
"+  c #2D64B9",
"@  c #2E64B9",
"#  c #2E65B9",
"$  c #2F65BA",
"%  c #3065BA",
"&  c #3066BA",
"*  c #3166BB",
"=  c #3167BB",
"-  c #3369BC",
";  c #366FBF",
":  c #3871BF",
">  c #4279BF",
",  c #3B76C1",
"<  c #3B76C4",
"1  c #3C78C1",
"2  c #3F7CC5",
"3  c #457EC2",
"4  c #407CC4",
"5  c #4280C5",
"6  c #4280C6",
"7  c #4582C5",
"8  c #4682C4",
"9  c #4582C6",
"0  c #4683C6",
"q  c #4784C6",
"w  c #4985C4",
"e  c #4B88C5",
"r  c #4B89C5",
"t  c #4988C6",
"y  c #4A88C6",
"u  c #4B89C6",
"i  c #4C89C6",
"p  c #4F8BC7",
"a  c #4D8BC8",
"s  c #4F8CC8",
"d  c #4F8DC8",
"f  c #4F8CC9",
"g  c #6492DB",
"h  c #6594DB",
"j  c #7DB0E1",
"k  c #7DB2E2",
"l  c #84B6E2",
"z  c #B3D2F1",
"x  c #B5D4F3",
"c  c #B8D6F4",
"v  c #BAD6F5",
"b  c #BBD6F5",
"n  c #B4D8F6",
"m  c #BBD8F6",
"M  c #BCD9F6",
"N  c #BDDAF6",
"B  c #C1DBF8",
"V  c #C2DCF8",
"C  c #C3DDF9",
"Z  c #C4DDF9",
"A  c #C5DFF9",
"S  c #C6DFFA",
"D  c #C7DFFA",
"F  c #C7E0FA",
"G  c #C8E0F9",
"H  c #C8E0FA",
"J  c #C8E0FB",
"K  c #C9E0FB",
"L  c #C8E1FB",
"P  c #C9E1FB",
"I  c #CAE1FA",
"U  c #CBE1FB",
"Y  c #C9E2FB",
"T  c #CBE2FB",
"R  c #CCE1FB",
"E  c #CCE3FB",
"W  c #CDE3FB",
"Q  c #CEE3FB",
"!  c #C9E5FA",
"~  c #CCE2FC",
"^  c #CDE2FC",
"/  c #CDE3FC",
"(  c #CEE2FC",
")  c #CFE3FC",
"_  c #CFE4FC",
"`  c #CDE6FC",
"'  c #D7E6F2",
"]  c #DFE9F4",
"[  c #DFEBF5",
"{  c #DCEAF6",
"}  c #DEEAF6",
"|  c #DEEBF6",
" . c #DFECF7",
".. c #D0E4FB",
"X. c #D1E4FC",
"o. c #D3E5FC",
"O. c #D3E5FD",
"+. c #D2E6FC",
"@. c #D3E6FC",
"#. c #D3E7FD",
"$. c #D4E6FC",
"%. c #D4E6FD",
"&. c #D5E6FD",
"*. c #D5E7FD",
"=. c #D6E7FD",
"-. c #D5E5FE",
";. c #D6E7FE",
":. c #D7E7FE",
">. c #D6E8FE",
",. c #D7E8FE",
"<. c #D8E8FE",
"1. c #E3EDF7",
"2. c #E9EFF5",
"3. c #E6F0F7",
"4. c #ECF2F7",
"5. c #E8F1F8",
"6. c #EAF1F8",
"7. c #EBF2F8",
"8. c #EAF2FA",
"9. c #EBF3FA",
"0. c #ECF2F8",
"q. c #EDF3F8",
"w. c #ECF3F9",
"e. c #EDF4F8",
"r. c #EDF4F9",
"t. c #EEF4F8",
"y. c #EFF4F9",
"u. c #EDF4FA",
"i. c #EFF4FA",
"p. c #F0F4F8",
"a. c #F0F4F9",
"s. c #F1F5F9",
"d. c #F2F6FA",
"f. c #F2F7FB",
"g. c #F3F7FB",
"h. c #F4F7FB",
"j. c #F3F7FC",
"k. c #F4F8FC",
"l. c #F5F9FC",
"z. c #F7FAFD",
"x. c #F8FBFD",
"c. c #F8FBFF",
"v. c #FDFEFE",
/* pixels */
"    a s s s s d f p r <         ",
"  w 4.t.e.q.q.q.0.4.' k h       ",
"  e d.F P Y J A B c c.n j g     ",
"  i s./ Q W T G V v x.` ! l >   ",
"  u s.) .._ / I Z M ] 4.g.2.3   ",
"  u a.@.$.#.X.W H V b x z p.8   ",
"  y y.:.=.*.%.+.R D V N m i.0   ",
"  t r.<.<.,.;.O.X.R F C V u.9   ",
"  q w.>.,.=.=.*.O...E D S 8.6   ",
"  7 7.;.=.=.=.&.O.X.^ U P f.2   ",
"  5 5.-.O.O.o.o.X.( ~ K L z.,   ",
"  4 3.. . . . . . . . . . l.;   ",
"  1 1.. X X X X X X X X . h.=   ",
"  : [ . . . . . . . . . . x.+   ",
"  - 6. .| } { { 9.9.8.j.k.v.o   ",
"    % * & & & % $ # # @ @ O     "
};
